HIERARCHY
ROOT joint_Root
{
	OFFSET 0.0 0.0 0.0
	CHANNELS 6 Xposition Yposition Zposition Zrotation Xrotation Yrotation 
	JOINT Hips
	{
		OFFSET -17.1583 93.1646 452.98
		CHANNELS 6 Xposition Yposition Zposition Zrotation Xrotation Yrotation 
		JOINT Spine
		{
			OFFSET 15.7357 0.0 0.0
			CHANNELS 6 Xposition Yposition Zposition Zrotation Xrotation Yrotation 
			JOINT Chest
			{
				OFFSET 8.98455 -0.406207 0.0
				CHANNELS 6 Xposition Yposition Zposition Zrotation Xrotation Yrotation 
				JOINT Neck
				{
					OFFSET 16.3773 0.0 0.0
					CHANNELS 6 Xposition Yposition Zposition Zrotation Xrotation Yrotation 
					JOINT Head
					{
						OFFSET 6.45672 0.0 0.0
						CHANNELS 6 Xposition Yposition Zposition Zrotation Xrotation Yrotation 
						End Site
						{
							OFFSET 0.0 0.0 0.0
						}
					}
				}
				JOINT Shoulder_L
				{
					OFFSET 12.9942 -0.242716 4.98039
					CHANNELS 6 Xposition Yposition Zposition Zrotation Xrotation Yrotation 
					JOINT UpperArm_L
					{
						OFFSET 5.34809 0.0 0.0
						CHANNELS 6 Xposition Yposition Zposition Zrotation Xrotation Yrotation 
						JOINT LowerArm_L
						{
							OFFSET 24.3286 1.87007e-05 0.0
							CHANNELS 6 Xposition Yposition Zposition Zrotation Xrotation Yrotation 
							JOINT Hand_L
							{
								OFFSET 22.2916 0.0 0.0
								CHANNELS 6 Xposition Yposition Zposition Zrotation Xrotation Yrotation 
								End Site
								{
									OFFSET 0.0 0.0 0.0
								}
							}
						}
					}
				}
				JOINT Shoulder_R
				{
					OFFSET 12.9945 -0.242716 -4.98039
					CHANNELS 6 Xposition Yposition Zposition Zrotation Xrotation Yrotation 
					JOINT UpperArm_R
					{
						OFFSET -5.34813 0.0 0.0
						CHANNELS 6 Xposition Yposition Zposition Zrotation Xrotation Yrotation 
						JOINT LowerArm_R
						{
							OFFSET -24.3289 0.000322201 0.0
							CHANNELS 6 Xposition Yposition Zposition Zrotation Xrotation Yrotation 
							JOINT Hand_R
							{
								OFFSET -22.2915 -0.000108084 0.0
								CHANNELS 6 Xposition Yposition Zposition Zrotation Xrotation Yrotation 
								End Site
								{
									OFFSET 0.0 0.0 0.0
								}
							}
						}
					}
				}
			}
		}
		JOINT UpperLeg_L
		{
			OFFSET -2.19248 -6.46944 0.0
			CHANNELS 6 Xposition Yposition Zposition Zrotation Xrotation Yrotation 
			JOINT LowerLeg_L
			{
				OFFSET 39.0811 0.0 -1.23785e-05
				CHANNELS 6 Xposition Yposition Zposition Zrotation Xrotation Yrotation 
				JOINT Foot_L
				{
					OFFSET 40.9854 0.0 -1.26872e-05
					CHANNELS 6 Xposition Yposition Zposition Zrotation Xrotation Yrotation 
					JOINT Toes_L
					{
						OFFSET 11.7543 0.0 0.0
						CHANNELS 6 Xposition Yposition Zposition Zrotation Xrotation Yrotation 
						End Site
						{
							OFFSET 0.0 0.0 0.0
						}
					}
				}
			}
		}
		JOINT UpperLeg_R
		{
			OFFSET -2.19251 6.46944 0.0
			CHANNELS 6 Xposition Yposition Zposition Zrotation Xrotation Yrotation 
			JOINT LowerLeg_R
			{
				OFFSET -39.0811 -0.00228153 -0.0401928
				CHANNELS 6 Xposition Yposition Zposition Zrotation Xrotation Yrotation 
				JOINT Foot_R
				{
					OFFSET -40.9854 0.0 0.0
					CHANNELS 6 Xposition Yposition Zposition Zrotation Xrotation Yrotation 
					JOINT Toes_R
					{
						OFFSET -11.7543 0.0 0.0
						CHANNELS 6 Xposition Yposition Zposition Zrotation Xrotation Yrotation 
						End Site
						{
							OFFSET 0.0 0.0 0.0
						}
					}
				}
			}
		}
	}
}
MOTION
Frames:	4
Frame Time:	0.0333333
0.000000 0.000000 0.000000 0.000000 0.000000 -0.000000 -238.177000 89.733500 268.070000 -15.343700 86.009400 102.583000 15.735700 0.000005 -0.000001 54.915000 87.029500 -51.125000 8.984550 -0.406207 -0.000000 -2.771370 -3.761650 7.491950 16.377300 -0.000001 -0.000001 -1.797150 5.400950 -4.674840 6.456720 -0.000001 -0.000000 5.699490 6.677010 -12.101900 12.994200 -0.242716 4.980390 -93.164700 10.050600 -72.420500 5.348090 -0.000007 -0.000001 -67.697900 -0.777427 3.059570 24.328600 0.000019 0.000005 4.890550 41.141900 -7.409800 22.291600 -0.000001 0.000005 -13.261600 5.067750 5.835200 12.994500 -0.242716 -4.980390 88.682300 3.951690 -71.542800 -5.348130 -0.000001 -0.000004 -67.588500 7.204910 -3.987310 -24.328900 0.000322 -0.000009 0.779536 2.662130 -16.314500 -22.291500 -0.000108 -0.000004 1.294700 5.254880 1.290840 -2.192480 -6.469440 -0.000000 -169.571000 1.215850 -13.396600 39.081100 -0.000007 -0.000012 0.343493 -0.176025 62.866500 40.985400 -0.000006 -0.000013 -11.975400 7.747490 -39.675300 11.754300 -0.000000 0.000003 0.000599 0.010783 -16.139600 -2.192510 6.469440 -0.000001 -173.212000 4.517060 167.459000 -39.081100 -0.002282 -0.040193 -0.005339 0.012866 33.861300 -40.985400 0.000008 0.000006 -4.327690 -1.172400 -77.410000 -11.754300 -0.000006 -0.000006 -0.003845 0.217486 -7.747130
0.000000 0.000000 0.000000 0.000000 0.000000 -0.000000 -235.374000 91.018500 267.749000 25.456200 87.726600 61.744600 15.735700 0.000005 -0.000001 73.808300 87.624200 -70.870700 8.984550 -0.406207 -0.000000 -3.155550 -1.604150 5.832510 16.377300 -0.000001 -0.000001 -1.252000 5.438390 -4.518700 6.456720 -0.000001 -0.000000 6.198310 6.262970 -11.204800 12.994200 -0.242716 4.980390 -93.034400 9.132420 -71.530700 5.348090 -0.000007 -0.000001 -65.829300 -6.368390 6.265860 24.328600 0.000019 0.000005 2.665000 41.843800 -3.991240 22.291600 -0.000001 0.000005 -12.510200 4.918270 9.010090 12.994500 -0.242716 -4.980390 88.864000 3.478620 -71.903100 -5.348130 -0.000001 -0.000004 -68.800600 10.632300 -6.925970 -24.328900 0.000322 -0.000009 1.781990 3.987530 -24.112600 -22.291500 -0.000108 -0.000004 0.868169 5.340610 -1.095650 -2.192480 -6.469440 -0.000000 -172.592000 0.193871 -17.310800 39.081100 -0.000007 -0.000012 0.309872 -0.163810 62.136900 40.985400 -0.000006 -0.000013 -11.723900 6.816680 -44.640500 11.754300 -0.000000 0.000003 0.001274 0.025259 -15.552200 -2.192510 6.469440 -0.000001 -175.759000 3.797850 171.713000 -39.081100 -0.002282 -0.040193 -0.009117 0.022619 28.773700 -40.985400 0.000008 0.000006 -5.025350 0.132687 -74.399500 -11.754300 -0.000006 -0.000006 -0.001760 0.193334 -8.729860
0.000000 0.000000 0.000000 0.000000 0.000000 -0.000000 -232.675000 92.168700 267.464000 80.142600 86.960300 6.674460 15.735700 0.000005 -0.000001 97.757700 87.855100 -95.556400 8.984550 -0.406207 -0.000000 -3.518630 0.362112 4.415020 16.377300 -0.000001 -0.000001 -0.946431 5.603960 -4.246850 6.456720 -0.000001 -0.000000 6.521550 5.842220 -10.594800 12.994200 -0.242716 4.980390 -93.024800 8.548390 -70.429900 5.348090 -0.000007 -0.000001 -62.650300 -10.299700 10.174200 24.328600 0.000019 0.000005 3.554630 41.092600 -5.399380 22.291600 -0.000001 0.000005 -12.690600 4.932350 8.725200 12.994500 -0.242716 -4.980390 89.051000 2.996270 -72.416700 -5.348130 -0.000001 -0.000004 -69.031600 12.252100 -9.927550 -24.328900 0.000322 -0.000009 1.396970 2.266010 -31.707900 -22.291500 -0.000108 -0.000004 1.821530 5.372770 -2.071090 -2.192480 -6.469440 -0.000000 -175.205000 -0.498691 -20.660000 39.081100 -0.000007 -0.000012 0.237861 -0.144284 58.758900 40.985400 -0.000006 -0.000013 -10.147300 6.978190 -50.866200 11.754300 -0.000000 0.000003 0.000742 0.013589 -16.025700 -2.192510 6.469440 -0.000001 -178.037000 3.990470 175.294000 -39.081100 -0.002282 -0.040193 -0.005565 0.020124 23.807900 -40.985400 0.000008 0.000006 -5.279900 1.821850 -70.817800 -11.754300 -0.000006 -0.000006 0.000072 0.166440 -9.822680
0.000000 0.000000 0.000000 0.000000 0.000000 -0.000000 -230.165000 92.982600 267.216000 97.062200 85.198900 -11.093800 15.735700 0.000005 -0.000001 120.684000 87.786400 -119.087000 8.984550 -0.406207 -0.000000 -3.987150 2.094080 3.267340 16.377300 -0.000001 -0.000001 -0.852107 5.754850 -3.917060 6.456720 -0.000001 -0.000000 6.527740 5.380570 -9.892580 12.994200 -0.242716 4.980390 -93.042900 8.103620 -69.338200 5.348090 -0.000007 -0.000001 -59.032800 -12.402800 13.607600 24.328600 0.000019 0.000005 4.292260 35.971000 -7.283390 22.291600 -0.000001 0.000005 -12.429800 5.019090 6.913380 12.994500 -0.242716 -4.980390 89.234500 2.515380 -73.069000 -5.348130 -0.000001 -0.000004 -69.080600 11.729300 -13.029800 -24.328900 0.000322 -0.000009 0.840666 1.071960 -38.154200 -22.291500 -0.000108 -0.000004 3.210370 5.379970 -2.296660 -2.192480 -6.469440 -0.000000 -177.000000 -0.743644 -23.884300 39.081100 -0.000007 -0.000012 0.180460 -0.136620 52.871300 40.985400 -0.000006 -0.000013 -9.219730 7.054010 -54.524700 11.754300 -0.000000 0.000003 0.001320 0.026391 -15.506200 -2.192510 6.469440 -0.000001 -179.956000 5.193440 177.983000 -39.081100 -0.002282 -0.040193 0.000487 0.008074 19.349300 -40.985400 0.000008 0.000006 -5.253520 4.240690 -67.477400 -11.754300 -0.000006 -0.000006 0.001475 0.137351 -11.003300
